<svg height="85" viewBox="0 0 150 85" width="150" xmlns="http://www.w3.org/2000/svg"><g fill="none" fill-rule="nonzero"><g fill="#939598" transform="translate(62.373736 64.575463)"><path d="m3.04037116 9.02133827 1.37679076-4.98056171 1.36576039 4.98056171h1.10403979l1.97343352-6.46364456h-1.11707568l-1.42692881 4.94360948-1.2654843-4.94360948h-1.26648706l-1.27751743 4.94360948-1.37779353-4.94360948h-1.12910881l1.9353286 6.46364456z"/><path d="m12.7200225 2.34796483c.9807002 0 1.7498178.29661656 2.2963225.90183421.545502.60621635.8182529 1.44613061.8182529 2.5337247 0 1.08759408-.2727509 1.92850705-.8182529 2.53372469-.5344716.60521765-1.3035892.90283293-2.2832866.90283293-.9807002 0-1.7498179-.29761528-2.2963226-.90283293-.54550194-.60521764-.81925567-1.44613061-.81925567-2.53372469 0-1.08759409.27375373-1.92750835.81925567-2.5337247.5334688-.60521765 1.3035892-.90183421 2.2832867-.90183421zm.0130359.96375417c-.6457781 0-1.1421448.20972888-1.4901028.63018537-.3349221.42045648-.5083998 1.03865734-.5083998 1.84161937 0 .80396073.1734777 1.40917838.5214357 1.82963486.3469553.43244099.8312888.64216988 1.4770669.64216988.6327421 0 1.1291088-.20972889 1.4640309-.64216988.3349222-.42045648.5083998-1.02567413.5083998-1.82963486 0-.80296203-.1734776-1.40917838-.5083998-1.82863616-.3349221-.4334397-.8312888-.64316858-1.4640309-.64316858z"/><path d="m18.4297432 9.02133827v-3.59635106c0-.60521764.1484086-1.06262636.4592645-1.38421065.29782-.30860108.7440486-.46939323 1.3276555-.46939323h.1614445c.0371022 0 .0742043.01198451.0992734.01198451v-1.14951404c-.0371022 0-.0752071-.01198451-.1123093-.01198451-.0371021 0-.0862374 0-.1734776 0-.4341955 0-.7941867.1108567-1.0920067.32158429-.29782.20972889-.5334688.54329769-.7069464.97573868v-1.16149855h-1.0549045v6.46364456z"/><path d="m21.643592.13582442h1.1040398v8.88551385h-1.1040398z"/><path d="m30.2823775.13582442v8.88551385h-1.0549045v-.81494653c-.272751.3335688-.59564.59323314-.9435981.76600979-.3469552.16079215-.7440486.24767983-1.1662109.24767983-.868391 0-1.5512712-.30959979-2.0727069-.92780065-.5083998-.61720215-.7691176-1.44613061-.7691176-2.48378925 0-1.05064185.2607178-1.89055611.7821535-2.52174019.5083998-.63018537 1.2033131-.93878644 2.059671-.93878644.4592645 0 .8563578.08588897 1.2033131.24668112.347958.17377536.6578112.42045648.9064959.75402528v-3.21284681zm-2.9541337 3.18787909c-.6076732 0-1.0789708.2227121-1.413893.66813631-.3359249.4444255-.5094025 1.07461087-.5094025 1.89055611 0 .74204077.1734776 1.32229069.5214357 1.74274718.3469553.42045648.8192557.63018537 1.4148957.63018537.6076731 0 1.0789707-.22271211 1.4138929-.6551531.3359249-.43244099.5094025-1.05064185.5094025-1.85360387 0-.80296203-.1614445-1.40917838-.4843335-1.81665165-.3349222-.40847198-.8062198-.60621635-1.4519978-.60621635z"/><path d="m38.4979978 2.34796483c.9796975 0 1.7498179.29661656 2.2953198.90183421.5465047.60621635.8192557 1.44613061.8192557 2.5337247 0 1.08759408-.272751 1.92850705-.8192557 2.53372469-.5334688.60521765-1.3025865.90283293-2.2832866.90283293-.9807002 0-1.7498179-.29761528-2.2953198-.90283293-.5465047-.60521764-.8192557-1.44613061-.8192557-2.53372469 0-1.08759409.272751-1.92750835.8192557-2.5337247.5334688-.60521765 1.3025864-.90183421 2.2832866-.90183421zm.0120332.96375417c-.6447753 0-1.141142.20972888-1.4891.63018537-.3349222.42045648-.5083998 1.03865734-.5083998 1.84161937 0 .80396073.1734776 1.40917838.5204329 1.82963486.347958.43244099.8322916.64216988 1.4770669.64216988.6327421 0 1.1291088-.20972889 1.4640309-.64216988.3359249-.42045648.5094026-1.02567413.5094026-1.82963486 0-.80296203-.1734777-1.40917838-.5094026-1.82863616-.3349221-.4334397-.8312888-.64316858-1.4640309-.64316858z"/><path d="m44.4554005 9.02133827v-5.59876258h1.166211v-.86488198h-1.166211v-.54329769c0-.39548875.0491353-.66813631.1484087-.80396073.0992733-.13582442.2857868-.20972889.5334688-.20972889.050138 0 .1123092 0 .1865135.01198451.0872402.01298322.1865135.02496773.29782.04993545v-.97673739c-.2236157-.03695223-.3970933-.06191995-.5083998-.07390446-.1243423-.01198451-.2236157-.01198451-.29782-.01198451-.4843335 0-.8563578.13582442-1.0920066.39548876-.2486848.27164884-.3730271.67912211-.3730271 1.21043529v.95176966h-1.0669376v.86488198h1.0669376v5.59876258z"/><path d="m52.7582611 2.34796483c.4221623 0 .8072225.08588897 1.1291088.24668112.322889.16079214.6337449.42045648.9064959.778993v-.81594524h1.0669376v6.32782014c0 1.00170511-.2356488 1.71877815-.7199823 2.16320365-.4712977.4454242-1.2404153.6671376-2.307353.6671376-.8563578 0-1.5272049-.1727766-2.0105356-.5063454-.4843336-.3335688-.7320155-.7909776-.7320155-1.3842107v-.04993545h1.0669376v.02496773c0 .33356882.1363755.58124862.4221624.75402532.2847841.1607921.7189796.2476798 1.2905533.2476798.6949133 0 1.1782441-.1368231 1.4891-.3954888.29782-.2596643.4462286-.69210529.4462286-1.28533843v-.89084842c-.2476819.33456751-.5455019.58124863-.89346.75402529-.3469553.16079214-.7320155.24767983-1.166211.24767983-.8814268 0-1.5883733-.3215843-2.1218421-.95176967s-.7941867-1.47109833-.7941867-2.50875697c0-1.03865735.272751-1.85360388.8062198-2.48478796.5334689-.63018537 1.2414181-.93878644 2.1218422-.93878644zm.1243423.97573868c-.6076731 0-1.0799735.21072759-1.4148956.64316858-.3349222.42045649-.4963667 1.03865735-.4963667 1.82963486 0 .7779943.1744804 1.37122744.5094025 1.80366843.3349222.43244099.8062198.6551531 1.413893.6551531.670847 0 1.1541778-.19774438 1.4770668-.59323314.3098532-.39548876.4712977-1.0007064.4712977-1.82863615s-.1614445-1.45911383-.4963667-1.87857161c-.3218863-.42045648-.8182529-.63118407-1.464031-.63118407z"/><path d="m60.1947362 2.34796483c.8683909 0 1.5011331.16079214 1.9102596.48137773.4101292.33456751.620709.84091296.620709 1.52103378v3.23781454c0 .27164884.025069.45740871.0872402.53131318.0621712.08688768.1734776.12383991.3349221.12383991.0371022 0 .0742043 0 .1113065-.01298322.050138 0 .1123092-.0119845.1744804-.02396901v.83991425c-.1373783.03695224-.2486847.06191996-.3479581.07490318-.0992733.01198451-.1985466.02396901-.2857868.02396901-.3589884 0-.6327422-.07390446-.8182529-.23469661-.1744804-.16079214-.2737538-.39548876-.2737538-.71707305v-.03695223c-.3349221.35853652-.6949133.61820086-1.0789707.80396073-.3850602.17277666-.7821536.25966434-1.2163491.25966434-.6578111 0-1.1792468-.17377537-1.5512711-.51932867-.3720243-.34655202-.5585379-.81594525-.5585379-1.42116289 0-.59323314.1865136-1.05064185.5465047-1.38421066.3720244-.33456751.9305622-.54429639 1.6746108-.64316858.1865135-.02496773.4472314-.04893674.7701204-.08688768.5585378-.04893675.89346-.1108567 1.0167996-.15979344.1243424-.04993545.2115826-.11185541.2486847-.18575987.0371022-.08688769.0621712-.25966434.0621712-.51932868 0-.3335688-.1243424-.58124863-.3599912-.74104206-.2486847-.16079215-.6076731-.24767983-1.1040398-.24767983-.5094025 0-.8814268.09887219-1.1421447.29661657-.2607178.20972888-.3850602.50734416-.3850602.90283292h-1.0298355v-.04993545c0-.65515309.2356489-1.16149855.6949134-1.5450028s1.0920066-.56826541 1.8992292-.56826541zm1.4138929 3.38662217c-.2847841.16079214-.7941867.28363335-1.5011331.37052103-.2486847.02496773-.4341955.04893674-.5585379.07390447l-.1633652.03025535c-.3130895.06780156-.5442975.17847482-.6929926.31629666-.1734776.17277666-.2607179.41945778-.2607179.74104207 0 .3215843.0992734.56826541.29782.74204078.2115826.17277665.4963667.25966433.8693938.25966433.59564 0 1.0669376-.14880763 1.4519978-.4454242.3720243-.28463206.5575351-.66713761.5575351-1.12454632z"/><path d="m73.6086692 9.02133827v-3.87998441-.18575987c0-.49436095-.025069-.85289748-.0621712-1.08759409-.0371021-.2227121-.1113064-.42045648-.1985466-.59323314-.1614446-.28463206-.4091265-.50634545-.7199824-.65515309-.3098531-.14780893-.6698443-.2227121-1.0920067-.2227121-.4341954 0-.8192556.08688768-1.1541778.24767982-.3349221.16079215-.6447753.42045649-.9305621.7660098-.2105798-.34555331-.4462287-.60521765-.7440486-.7660098-.2857869-.16079214-.6207091-.24767982-1.0308383-.24767982-.4462286 0-.8312888.08688768-1.166211.25966433-.322889.18575987-.6076731.45740872-.8563578.81594524v-.91481743h-1.0418686v6.46364456h1.0920067v-3.81806445c0-.58124863.1484086-1.03865735.4462286-1.36024164.2857868-.3335688.6949133-.49436095 1.216349-.49436095.4341955 0 .7450514.12383991.9305621.35853653.1734777.23469661.2607179.68012082.2607179 1.33527391v3.9788566h1.1050425v-3.81806445c0-.59323314.1484086-1.03865735.4341955-1.37222615.29782-.32158429.6949133-.48237644 1.2283822-.48237644.4341954 0 .7440486.12383991.9305621.35853653.1734776.23469661.2607178.68012082.2607178 1.33527391v3.9788566z"/><path d="m78.038867 2.34796483c.9305622 0 1.6505445.28363335 2.1589443.85289747.5083998.56826541.7691176 1.38421065.7691176 2.42186929v.29661657l-.0120331.18575987h-4.6909156c.0120331.68012082.1865135 1.211434.5083998 1.58195503.3349221.37052104.7821535.55628091 1.3657603.55628091.4462287 0 .818253-.11185541 1.1040398-.34655202.2857869-.22171339.4712977-.54329769.5585379-.96375417h1.0799735c-.1123092.71707305-.4351982 1.27335396-.9315649 1.68082722-.5083998.40747327-1.1411419.61820087-1.9102596.61820087-.9064959 0-1.6134423-.29661657-2.134878-.90283293-.5214357-.60521764-.7821535-1.43314739-.7821535-2.47180474 0-1.09957859.2607178-1.96446057.7701204-2.58266144.5204329-.61820086 1.2404152-.92680193 2.1469111-.92680193zm.0371022.96375417c-.5334688 0-.9556312.16079214-1.2664871.48237644-.3098531.32158429-.4963667.79097751-.5455019 1.40917838h3.5618068c0-.60621636-.1614445-1.07560958-.4592645-1.39719387-.29782-.33356881-.7320155-.49436095-1.2905533-.49436095z"/><path d="m82.6154679 8.62584951c.4462286.39548876 1.0920067.59423185 1.9232955.59423185.8563578 0 1.514169-.18575987 1.9985025-.55628091.4712977-.37151974.7069465-.8898497.7069465-1.56997052 0-.50634546-.1363755-.90183422-.4221624-1.17448177-.2847841-.28363335-.7941866-.50634546-1.5512711-.67912211l-1.0549045-.24767983c-.3840575-.08588897-.6578112-.19774438-.8062198-.30860108-.1363755-.12383991-.2105798-.28463206-.2105798-.49436094 0-.29661657.1113064-.51932868.3469553-.66813632.2236157-.15979343.5585378-.23469661 1.0057692-.23469661.4341955 0 .7811508.09887219 1.0418686.28463206.2607178.18575988.3970933.44542421.4221624.79097752h1.0549045v-.02496772c0-.60521765-.2236157-1.08759409-.6828802-1.44613062-.4592645-.35853652-1.0669377-.53131318-1.8490912-.53131318-.7570845 0-1.3396886.17277666-1.7748869.50734417-.4341954.3335688-.6568084.79097752-.6568084 1.35924293 0 .49436095.1363755.8898497.4091265 1.16149855.2607178.27164884.7440486.48237644 1.4269288.65515309l1.2283821.30860108c.3850602.09887219.6457781.19774438.7821536.33456751.1363755.12284121.1985466.30860108.1985466.54329769 0 .32158429-.1363754.56826541-.4091264.75402528-.2737538.18575988-.6457781.27164885-1.1050426.27164885-.5083998 0-.9054931-.1108567-1.19128-.3335688-.2727509-.23469662-.4341954-.55628091-.4712976-1.00070641h-1.0428714c.0130359.74104207.2356488 1.30930748.6828802 1.70479624z"/></g><g fill="#36417c" transform="translate(0 28.438177)"><path d="m33.1372379 31.315519h-9.53024l-3.4113927-18.3003435-.0050138.023969-.004011-.023969-3.2850448 18.3003435h-9.69268724l-7.20884836-30.52454148h9.35676229l3.25797031 19.70253088 3.7794059-19.70253088h7.9619219l3.6189642 19.70253088 3.1566914-19.70253088h9.1171024z"/><path d="m56.6600039 0c4.907512 0 8.7861913 1.43814094 11.6290185 4.30543444 2.8428273 2.87628188 4.2687533 6.80420436 4.2687533 11.77477896 0 .1547999-.0020055.3086011-.0050138.4614035-.0862374 4.7438677-1.5101579 8.5090006-4.2637395 11.304387-2.8428272 2.8752832-6.7215065 4.3134242-11.6290185 4.3144229-4.9255617-.0009987-8.8132659-1.4391397-11.6641152-4.3144229-2.8518521-2.8852702-4.2777782-6.8042043-4.2777782-11.7657905 0-4.9705746 1.4259261-8.89849708 4.2777782-11.77477896 2.8508493-2.8672935 6.7385535-4.30543444 11.6641152-4.30543444zm.0050138 7.66708889h-.0090249c-2.0666903 0-3.5918896.67412856-4.5575484 2.03137407-.9746836 1.34825714-1.4620255 3.48749174-1.4620255 6.38175044 0 2.8852702.4873419 5.0065281 1.4620255 6.3637736.9656588 1.3572456 2.4908581 2.0313741 4.5575484 2.0313741h.0090249c2.0486406 0 3.5557903-.6741285 4.5124242-2.0223857.9566339-1.3482571 1.4349509-3.469515 1.4349509-6.372762 0-2.9122354-.478317-5.0424817-1.4349509-6.39073882-.9566339-1.34825713-2.4637836-2.02238569-4.5124242-2.02238569z"/><path d="m89.2938557 32.1604268c-4.3840708-.0009987-7.8385822-1.4301513-10.364537-4.2964461-2.5179327-2.8672935-3.7814115-6.7952159-3.7814115-11.7837673 0-5.096412 1.4078764-9.05129956 4.2236291-11.86466277 2.8147499-2.81336321 6.7576059-4.21555063 11.8355873-4.21555063 3.9960023 0 7.2168705.9887219 9.6616014 2.96616569 2.454759 1.97744379 3.90776 4.75485348 4.368027 8.35020581h-9.3407183c-.3790436-1.2134314-.9837084-2.13923463-1.8230193-2.77740967s-1.8771685-.95276837-3.1135727-.95276837h-.0090249c-.6708471 0-1.2845367.08788639-1.8400663.26266046-.0030083.00099871-.0050138.00099871-.0070193.00199742-.0340939.0109858-.0681878.02297031-.1012789.0339561-.0180497.00599226-.0360994.01198451-.0531463.01797677-.0160442.00599225-.0320884.0119845-.0481325.01797676-.4793198.17377536-.914518.41746035-1.3035893.73005627-.4051154.32358171-.7610955.72006918-1.0689431 1.19145982-.9446008 1.46210994-1.4319426 3.60833554-1.4610227 6.46264584-.0010028.0918812-.0010028.1847612-.0010028.2786398 0 2.7594329.4873419 4.8267605 1.4710503 6.1929944.9927334 1.3662339 2.4908582 2.0493509 4.4943746 2.0493509h.0090248c1.4439757 0 2.6713551-.3325701 3.6731133-1.0066987 1.010783-.6651402 1.6334976-1.5639783 1.8681436-2.7055026h-4.4402254v-6.5255645h13.4650742v16.7273768h-6.3444688l-.478317-2.6335956c-1.1190812 1.1774779-2.4547587 2.0493508-4.0250824 2.6246072-1.560296.5742576-3.3823126.8528975-5.4650471.8538962z"/><path d="m109.451356 23.9001047h7.562823v7.6760773h-7.562823z"/><path d="m119.243317 20.4305897c-3.095523 0-5.523208-.9078264-7.292078-2.714491-1.78692-1.8066646-2.671355-4.2784693-2.671355-7.4154142 0-2.54870535.583607-4.65698002 1.740793-6.3328137.266734-.38450296.565557-.7450369.894463-1.08260054.484333-.50334933 1.018805-.93579032 1.601409-1.29932039.010028-.00599225.020055-.01298322.031085-.01897547.011031-.00699096.023064-.01398193.034094-.02097289 1.515172-.92180839 3.35223-1.38421065 5.517191-1.38421065 2.797703 0 4.990741.67412856 6.597164 2.02238569 1.606423 1.33926875 2.499883 3.26278226 2.69843 5.76155214h-5.93835c-.081224-.97973351-.406119-1.72576913-.956634-2.22013007-.550516-.50334933-1.326653-.755024-2.319386-.755024-1.218355 0-2.129865.44043067-2.734529 1.32129199-.61369.88984971-.920535 2.22013008-.920535 4.00881789 0 1.7437459.324895 3.0650379.974684 3.9638759.640764.8988381 1.597398 1.3482572 2.842827 1.3482572.001003 0 .002005-.0009987.003008-.0009987.002006 0 .004011.0009987.006017.0009987.956634 0 1.723746-.2786398 2.292311-.8269311.559541-.5482912.884435-1.3302803.983709-2.3459674h5.866151c-.155428 2.296032-.903487 4.1206733-2.251198 5.4859085-.137378.1388205-.27977.2726475-.429182.401481-.140386.1218425-.285787.2376927-.435198.3485494-.013036.0099871-.026072.0199742-.039108.0299613-.016044.0119845-.032088.0229703-.048132.0349548-1.556285 1.1235476-3.576848 1.6898156-6.047651 1.6898156z"/><path d="m150 19.8912869h-6.200071v-7.4513678h-5.775903-.009025v7.4513678h-6.191046v-19.22614671h6.191046v6.52556451h5.784928v-6.52556451h6.200071z"/></g><g transform="translate(41.896355 1.5)"><path d="m19.7569875 81.0802198c-3.1867311-4.1357183-5.5969753-10.1086896-7.0093958-16.0182377-.2605527-1.0921992-.4443223-2.0339423-.5277271-2.6662762-.1114079.0059343-.2156491.0089478-.3301282.0089478-2.00961524 0-4.5394814-.5989316-7.41699794-2.0958141-1.72344363-.9017037-3.04215919-1.9488655-4.01177112-3.0496087 2.27829657 10.1342326 8.63956259 17.469554 19.29602016 23.8209889z" fill="#b5b7b7" stroke="#c7c9cb" stroke-width=".5"/><path d="m68.0881964 10.9603517c-3.6935575-3.35554993-7.9488186-6.018977-12.5553612-7.85074134-4.7382916-1.88282514-9.7793677-2.85961036-14.8989566-2.85961036-2.4575731 0-4.9421745.22659177-7.4088147.67890259-14.6984735 2.73355696-26.45941007 12.91009931-31.48566449 26.84017721 1.94162729-1.7362256 4.61707357-3.1999116 8.09772525-4.0222415 2.03372554-.4861218 3.94108274-.6989551 5.70767534-.6989551 1.1928742 0 2.1886559.0955264 2.9094893.2284957.1793241-.2680116.3644157-.5363491.5548806-.8045091 1.6391741-2.3047772 3.5482888-4.3893573 5.7540481-6.2348626 1.6875556-1.4116531 3.541703-2.676358 5.569854-3.7851562 3.7722586-2.1268634 7.8605418-3.63018246 12.1583237-4.44611192 1.9821398-.37711463 3.9766997-.60029711 5.9655697-.67106236.8536475-.05301236 1.7081051-.07937869 2.5645137-.07937869 5.6779931 0 11.2609472 1.17705501 16.4546421 3.43329057l.0000962.0000418c.205484.0893684.4094632.1799315.611979.2717213zm-.8113457.1868121c-.000016-.000007-.0000321-.0000139-.0000481-.0000209l.0000961.0000418c-.000016-.000007-.000032-.0000139-.000048-.0000209z" fill="#b5b7b7" stroke="#c7c9cb" stroke-width=".5"/><path d="m1.93131756 18.6159355c-2.44974496-5.041483-1.24843736-11.29340122 3.32515526-15.11046696 2.44673668-2.045356 5.43095318-3.04306628 8.39210628-3.04406499 2.1248504.00099871 4.2366649.51533384 6.1288748 1.52502862-3.3662684 1.6888169-6.8508627 3.59734977-9.78995499 6.26490147-.09425952.08588897-.18851905.17277666-.28177582.26066305-2.01153843 1.88156771-3.7503259 4.12966161-5.39685935 6.52057101-.80722255 1.1694882-1.59238437 2.3729325-2.37754618 3.5833678z" fill="#f7b946"/></g></g></svg>